# xmcd
#
# Track frame offsets: 
#        150
#        10262
#        31738
#        40244
#        55451
#        67000
#        87040
#        101628
#
# Disc length: 1619 seconds
#
# Revision: 0
# Processed by: cddbd v1.5.1PL2 Copyright (c) Steve Scherf et al.
# Submitted via: ExactAudioCopy v0.95b3
#
DISCID=60065108
DTITLE=Whiskey and Co - Leaving the Nightlife
DYEAR=2006
DGENRE=Alt. Country
TTITLE0=Nightlife
TTITLE1=One Man (too Many)
TTITLE2=Happy Hour
TTITLE3=Tail Lights
TTITLE4=Clocks and Spoons
TTITLE5=How I Wish
TTITLE6=Never Said Nothin'
TTITLE7=A Drink For You
EXTD=
EXTT0=
EXTT1=
EXTT2=
EXTT3=
EXTT4=
EXTT5=
EXTT6=
EXTT7=
PLAYORDER=
